<svg xmlns="http://www.w3.org/2000/svg" viewBox="0 0 320 108" role="img" aria-label="DishLingo">
  <defs>
    <linearGradient id="bubble" x1="0%" y1="0%" x2="100%" y2="100%">
      <stop offset="0%" stop-color="#ff6432" />
      <stop offset="100%" stop-color="#ff3a1a" />
    </linearGradient>
    <filter id="shadow" x="-20%" y="-20%" width="140%" height="140%">
      <feDropShadow dx="0" dy="4" stdDeviation="6" flood-color="#ff5a2e" flood-opacity="0.18" />
    </filter>
  </defs>
  <g transform="translate(16 10)" filter="url(#shadow)">
    <path d="M48 0C21.5 0 0 20.4 0 45.7c0 13.9 6.6 26.4 17 34.8l-4.7 13.1 15.5-8.3c6.1 2 12.7 3 20.2 3 26.5 0 48-20.4 48-45.6C96 20.4 74.5 0 48 0Z" fill="url(#bubble)" />
    <ellipse cx="48" cy="46" rx="34" ry="28" fill="#ffffff" />
    <circle cx="32" cy="49" r="4.5" fill="#102754" />
    <circle cx="48" cy="49" r="4.5" fill="#102754" />
    <circle cx="64" cy="49" r="4.5" fill="#102754" />
    <rect x="58" y="-4" width="8" height="54" rx="2.5" transform="rotate(48 58 -4)" fill="#102754" />
    <rect x="72" y="-2" width="8" height="54" rx="2.5" transform="rotate(52 72 -2)" fill="#102754" />
  </g>
  <g transform="translate(132 22)">
    <text x="0" y="40" font-size="52" font-weight="800" font-family="Arial, Helvetica, sans-serif">
      <tspan fill="#102754">Dish</tspan>
      <tspan fill="#ff4a21">Lingo</tspan>
    </text>
    <text x="1" y="72" font-size="9.5" letter-spacing="3.2" font-weight="700" fill="#243b6a" font-family="Arial, Helvetica, sans-serif">
      LOCAL WORDS, BETTER MENUS.
    </text>
  </g>
</svg>
